<svg xmlns="http://www.w3.org/2000/svg" viewBox="-40 0 330 400" role="img" aria-labelledby="title desc">
  <title id="title">垂吊书架盆栽</title>
  <desc id="desc">一盆叶片层叠、藤蔓自然垂落并伸向书本的绿萝</desc>
  <defs>
    <style>
      g[id^="leaf-"] > path:first-child { stroke-opacity: .18; }
      g[id^="leaf-"] > path:not(:first-child) { stroke-width: .7; stroke-opacity: .25; }
    </style>
    <linearGradient id="leaf-deep" x1="0" y1="0" x2="1" y2="1">
      <stop offset="0" stop-color="#9b9c59"/>
      <stop offset=".35" stop-color="#74804b"/>
      <stop offset=".72" stop-color="#4c623c"/>
      <stop offset="1" stop-color="#344c34"/>
    </linearGradient>
    <linearGradient id="leaf-warm" x1="0" y1="0" x2="1" y2="1">
      <stop offset="0" stop-color="#c6b878"/>
      <stop offset=".27" stop-color="#a1a15e"/>
      <stop offset=".62" stop-color="#778347"/>
      <stop offset="1" stop-color="#4b623b"/>
    </linearGradient>
    <linearGradient id="leaf-shadow" x1="0" y1="0" x2="1" y2="1">
      <stop offset="0" stop-color="#7c8650"/>
      <stop offset=".48" stop-color="#52673f"/>
      <stop offset="1" stop-color="#314a32"/>
    </linearGradient>
    <linearGradient id="pot-body" x1="0" y1="0" x2="1" y2="1">
      <stop offset="0" stop-color="#d3a371"/>
      <stop offset=".24" stop-color="#b57750"/>
      <stop offset=".68" stop-color="#7d4b37"/>
      <stop offset="1" stop-color="#4a2b22"/>
    </linearGradient>
    <linearGradient id="pot-rim" x1="0" y1="0" x2="0" y2="1">
      <stop offset="0" stop-color="#e6b98a"/>
      <stop offset=".5" stop-color="#a76849"/>
      <stop offset="1" stop-color="#60382b"/>
    </linearGradient>
    <radialGradient id="soil" cx="42%" cy="35%" r="70%">
      <stop offset="0" stop-color="#705139"/>
      <stop offset=".55" stop-color="#432f25"/>
      <stop offset="1" stop-color="#211713"/>
    </radialGradient>
    <filter id="plant-shadow" x="-35%" y="-30%" width="180%" height="190%">
      <feTurbulence type="fractalNoise" baseFrequency=".65" numOctaves="3" seed="8" result="grain"/>
      <feColorMatrix in="grain" type="saturate" values="0"/>
      <feComponentTransfer><feFuncA type="linear" slope=".13"/></feComponentTransfer>
      <feComposite in2="SourceGraphic" operator="in" result="texture"/>
      <feBlend in="SourceGraphic" in2="texture" mode="soft-light"/>
      <feDropShadow dx="2" dy="3" stdDeviation="2.5" flood-color="#29351c" flood-opacity=".22"/>
    </filter>
    <filter id="pot-shadow" x="-40%" y="-30%" width="190%" height="200%">
      <feTurbulence type="fractalNoise" baseFrequency=".9" numOctaves="3" seed="12" result="grain"/>
      <feColorMatrix in="grain" type="saturate" values="0"/>
      <feComponentTransfer><feFuncA type="linear" slope=".22"/></feComponentTransfer>
      <feComposite in2="SourceGraphic" operator="in" result="texture"/>
      <feBlend in="SourceGraphic" in2="texture" mode="soft-light"/>
      <feDropShadow dx="3" dy="5" stdDeviation="4" flood-color="#291910" flood-opacity=".3"/>
    </filter>

    <g id="leaf-a">
      <path d="M0 0C-16-8-27-24-20-39-14-51 0-49 10-66 12-48 29-36 24-21 20-10 9-4 0 0Z" fill="url(#leaf-warm)" stroke="#29432c" stroke-width=".7"/>
      <path d="M-12-37Q-6-45 5-52L1-35-5-30-4-20-12-27Z" fill="#e1cf8c" opacity=".28"/>
      <path d="M3-8Q20-19 20-30L11-40Q15-23 3-8" fill="#314d2e" opacity=".18"/>
      <path d="M0-3V-45" fill="none" stroke="#d8ce83" stroke-opacity=".46" stroke-width="1.4"/>
      <path d="m0-18-14-15M0-25l15-12M0-34l10-10" fill="none" stroke="#d8ce83" stroke-opacity=".25" stroke-width="1"/>
      <path d="M-18-42c7-8 15-8 20-2" fill="none" stroke="#fff0b1" stroke-opacity=".2" stroke-width="3.5" stroke-linecap="round"/>
    </g>
    <g id="leaf-b">
      <path d="M0 0C-12-10-20-27-12-42-5-53 10-54 17-63 16-46 30-34 23-20 18-10 9-5 0 0Z" fill="url(#leaf-deep)" stroke="#1c3828" stroke-width=".7"/>
      <path d="M1-15 2-28 8-34 7-44 14-52 12-37 16-27 8-23Z" fill="#d2c985" opacity=".25"/>
      <path d="M0-3V-45" fill="none" stroke="#9fb074" stroke-opacity=".46" stroke-width="1.4"/>
      <path d="m0-18-14-15M0-25l15-12M0-34l10-10" fill="none" stroke="#a9b878" stroke-opacity=".22" stroke-width="1"/>
      <path d="M-17-42c6-7 14-8 19-2" fill="none" stroke="#dfe7ad" stroke-opacity=".15" stroke-width="3.5" stroke-linecap="round"/>
    </g>
    <g id="leaf-c">
      <path d="M0 0C-9-14-10-32 0-46 7-55 15-57 19-66 19-44 27-36 19-20 14-9 6-5 0 0Z" fill="url(#leaf-shadow)" stroke="#162f22" stroke-width=".7"/>
      <path d="M0-3V-45" fill="none" stroke="#829c68" stroke-opacity=".42" stroke-width="1.4"/>
      <path d="m0-18-14-15M0-25l15-12M0-34l10-10" fill="none" stroke="#91a66f" stroke-opacity=".2" stroke-width="1"/>
    </g>
    <g id="leaf-folded">
      <path d="M0 0C-17-6-23-20-16-33-7-45 11-42 28-55 23-39 33-27 22-15 15-8 6-5 0 0Z" fill="url(#leaf-deep)" stroke="#1a3527" stroke-width=".7"/>
      <path d="M1-4Q17-22 25-48Q18-35 8-31L-4-18Z" fill="#c0bd7b" opacity=".23"/>
      <path d="M-1-3C6-14 12-26 18-40" fill="none" stroke="#a5b379" stroke-opacity=".46" stroke-width="1.4"/>
      <path d="M-24-31c9-8 20-10 31-6" fill="none" stroke="#e0e8af" stroke-opacity=".16" stroke-width="3" stroke-linecap="round"/>
    </g>
    <g id="leaf-curled">
      <path d="M0 0C-18-9-29-26-21-40-16-48-1-50 5-59 3-44 20-30 14-16 10-8 6-3 0 0Z" fill="url(#leaf-warm)" stroke="#2c462f" stroke-width=".7"/>
      <path d="M0-3C2-17 3-31 2-45" fill="none" stroke="#d8ce83" stroke-opacity=".46" stroke-width="1.3"/>
      <path d="M-20-37c7-8 15-10 22-7" fill="none" stroke="#fff0b1" stroke-opacity=".2" stroke-width="3" stroke-linecap="round"/>
    </g>
    <g id="leaf-narrow">
      <path d="M0 0C-8-13-8-28 2-40 10-48 21-49 27-58 24-38 29-29 19-15 12-6 6-3 0 0Z" fill="url(#leaf-shadow)" stroke="#172f23" stroke-width=".7"/>
      <path d="M1-3C7-16 13-29 21-42" fill="none" stroke="#8fa46e" stroke-opacity=".44" stroke-width="1.3"/>
    </g>
    <g id="leaf-young">
      <path d="M0 0C-10-7-14-20-7-30 0-39 13-38 19-47 19-32 24-22 16-12 10-5 5-2 0 0Z" fill="url(#leaf-warm)" stroke="#29432c" stroke-width=".7"/>
      <path d="M1-2C5-12 10-23 15-33" fill="none" stroke="#d8ce83" stroke-opacity=".43" stroke-width="1.2"/>
    </g>
  </defs>

  <g fill="none" stroke-linecap="round">
    <path d="M120 171C108 132 93 101 67 72" stroke="#48643e" stroke-width="4"/>
    <path d="M122 170C121 126 127 82 145 37" stroke="#587247" stroke-width="3.6"/>
    <path d="M128 171C144 129 167 98 198 76" stroke="#35583a" stroke-width="3.5"/>
    <path d="M112 172C83 153 58 156 45 178 31 201 39 234 22 260 7 283 23 307 10 334" stroke="#4e673f" stroke-width="3.4"/>
    <path d="M133 171C157 148 184 132 226 132" stroke="#2f5136" stroke-width="3.2"/>
  </g>

  <g filter="url(#plant-shadow)">
    <use href="#leaf-c" transform="translate(104 139) rotate(-68) scale(1.05)"/>
    <use href="#leaf-b" transform="translate(130 143) rotate(24) scale(1.1)"/>
    <use href="#leaf-a" transform="translate(156 142) rotate(76) scale(.86)"/>
    <use href="#leaf-curled" transform="translate(79 131) rotate(-106) scale(.88)"/>
    <use href="#leaf-narrow" transform="translate(174 116) rotate(100) scale(.8)"/>
    <use href="#leaf-folded" transform="translate(65 82) rotate(-48) scale(.82)"/>
    <use href="#leaf-young" transform="translate(73 104) rotate(-70) scale(.76)"/>
    <use href="#leaf-curled" transform="translate(91 108) rotate(-72) scale(.84)"/>
    <use href="#leaf-c" transform="translate(104 77) rotate(-28) scale(.72)"/>
    <use href="#leaf-young" transform="translate(109 119) rotate(-43) scale(.74)"/>
    <use href="#leaf-b" transform="translate(121 121) rotate(-20) scale(.88)"/>
    <use href="#leaf-narrow" transform="translate(132 91) rotate(18) scale(.9)"/>
    <use href="#leaf-folded" transform="translate(145 61) rotate(8) scale(.84)"/>
    <use href="#leaf-young" transform="translate(159 77) rotate(31) scale(.82)"/>
    <use href="#leaf-a" transform="translate(160 108) rotate(45) scale(.84)"/>
    <use href="#leaf-curled" transform="translate(181 94) rotate(64) scale(.78)"/>
    <use href="#leaf-narrow" transform="translate(199 83) rotate(52) scale(.74)"/>
    <use href="#leaf-young" transform="translate(189 117) rotate(78) scale(.7)"/>
    <use href="#leaf-a" transform="translate(141 143) rotate(78) scale(.74)"/>
    <use href="#leaf-folded" transform="translate(104 149) rotate(-92) scale(.78)"/>
    <use href="#leaf-young" transform="translate(82 144) rotate(-112) scale(.72)"/>
    <use href="#leaf-curled" transform="translate(118 156) rotate(-36) scale(.62)"/>
    <use href="#leaf-narrow" transform="translate(142 157) rotate(37) scale(.58)"/>
    <use href="#leaf-young" transform="translate(100 161) rotate(-82) scale(.56)"/>
    <use href="#leaf-folded" transform="translate(157 157) rotate(98) scale(.44)"/>

    <use href="#leaf-narrow" transform="translate(68 163) rotate(-75) scale(.66)"/>
    <use href="#leaf-curled" transform="translate(47 183) rotate(-104) scale(.56)"/>
    <use href="#leaf-young" transform="translate(51 199) rotate(-55) scale(.54)"/>
    <use href="#leaf-folded" transform="translate(43 211) rotate(-68) scale(.5)"/>
    <use href="#leaf-narrow" transform="translate(28 238) rotate(-112) scale(.5)"/>
    <use href="#leaf-curled" transform="translate(17 256) rotate(-72) scale(.42)"/>
    <use href="#leaf-young" transform="translate(28 270) rotate(-48) scale(.48)"/>
    <use href="#leaf-folded" transform="translate(22 280) rotate(-116) scale(.4)"/>
    <use href="#leaf-narrow" transform="translate(14 305) rotate(-70) scale(.38)"/>
    <use href="#leaf-curled" transform="translate(10 333) rotate(-108) scale(.34)"/>

    <use href="#leaf-folded" transform="translate(169 145) rotate(72) scale(.6)"/>
    <use href="#leaf-young" transform="translate(180 151) rotate(48) scale(.58)"/>
    <use href="#leaf-a" transform="translate(195 135) rotate(88) scale(.5)"/>
    <use href="#leaf-narrow" transform="translate(225 132) rotate(96) scale(.52)"/>
    <use href="#leaf-curled" transform="translate(199 156) rotate(143) scale(.54)"/>
    <use href="#leaf-young" transform="translate(209 181) rotate(163) scale(.45)"/>
  </g>

  <g filter="url(#pot-shadow)">
    <ellipse cx="123" cy="171" rx="42" ry="11" fill="url(#pot-rim)" stroke="#593529" stroke-width="2.2"/>
    <ellipse cx="123" cy="167" rx="35" ry="7" fill="url(#soil)"/>
    <path d="M87 175h72l-9 49c-1 8-8 13-16 13h-23c-9 0-15-5-17-13Z" fill="url(#pot-body)" stroke="#563229" stroke-opacity=".5" stroke-width="1"/>
    <path d="M94 185c14 6 45 7 58-1" fill="none" stroke="#f0c395" stroke-opacity=".32" stroke-width="3"/>
    <path d="M104 187c-2 14-1 28 2 39" fill="none" stroke="#f8dbb5" stroke-opacity=".1" stroke-width="9" stroke-linecap="round"/>
    <path d="M96 223c14 6 39 7 53 0" fill="none" stroke="#42261f" stroke-opacity=".58" stroke-width="2"/>
    <g fill="#4d2d24" opacity=".3">
      <circle cx="118" cy="198" r="1.2"/><circle cx="143" cy="207" r=".9"/><circle cx="103" cy="216" r=".8"/><circle cx="132" cy="229" r=".8"/>
    </g>
  </g>
</svg>
